<svg xmlns:rdf="http://www.w3.org/1999/02/22-rdf-syntax-ns#" xmlns="http://www.w3.org/2000/svg" enable-background="new 0 0 55 55" xml:space="preserve" height="55px" viewBox="0 0 55 55" width="55px" version="1.1" y="0px" x="0px" xmlns:cc="http://creativecommons.org/ns#" xmlns:dc="http://purl.org/dc/elements/1.1/"><metadata><rdf:RDF><cc:Work rdf:about=""><dc:format>image/svg+xml</dc:format><dc:type rdf:resource="http://purl.org/dc/dcmitype/StillImage"/><dc:title/></cc:Work></rdf:RDF></metadata>
				<path d="M0,0v55h5.584c-0.003-0.078-0.005-0.158-0.005-0.238,0-5.268,5.123-6.785,9.67-7.723v-0.431c-4.329-0.94-6.421-4.042-6.421-7.22,0-4.259,4.476-7.654,6.786-9.242v-0.432c-4.046-2.238-6.714-6.208-6.714-11.548,0-8.736,7.216-13.936,17.614-13.936,3.242,0,6.781,1.012,9.31,1.951h0.575l10.324-2.02h0.793v8.009h-0.938l-6.709-2.38v0.289c2.525,2.31,4.182,4.547,4.182,8.518,0,8.809-7.143,13.499-17.537,13.499-2.672,0-4.475-0.143-6.646-0.795-1.007,0.725-1.802,1.88-1.802,2.962,0,1.442,1.299,2.599,2.891,2.599h14.433c8.95,0,13.354,3.682,13.354,11.622,0,2.408-0.432,4.594-1.327,6.517h7.583v-55.001h-55z" fill="#999"/>
		<path d="M21.748,18.166c0,8.229,1.877,8.949,4.766,8.949,2.885,0,4.835-0.863,4.835-8.949,0-8.087-1.88-9.313-4.835-9.313-2.889,0-4.766,1.083-4.766,9.313z" fill="#999"/>
			<path d="M32.289,49.132h-14.151c-1.082,1.225-1.585,2.6-1.585,4.549,0,0.447,0.064,0.891,0.202,1.318h19.904c0.326-0.82,0.464-1.746,0.464-2.762,0-2.095-1.519-3.105-4.834-3.105z" fill="#999"/>
</svg>
