<svg xmlns:rdf="http://www.w3.org/1999/02/22-rdf-syntax-ns#" xmlns="http://www.w3.org/2000/svg" enable-background="new 0 0 55 55" xml:space="preserve" height="55px" viewBox="0 0 55 55" width="55px" version="1.1" y="0px" x="0px" xmlns:cc="http://creativecommons.org/ns#" xmlns:dc="http://purl.org/dc/elements/1.1/"><metadata><rdf:RDF><cc:Work rdf:about=""><dc:format>image/svg+xml</dc:format><dc:type rdf:resource="http://purl.org/dc/dcmitype/StillImage"/><dc:title/></cc:Work></rdf:RDF></metadata>
<path d="M43.287,33.195c-0.331,8.385-7.221,15.097-15.688,15.097-8.677,0-15.722-7.046-15.722-15.725s7.045-15.721,15.722-15.721c0.116,0,0.229,0.01,0.343,0.017v10.653l0.401-0.295h0.007l18.339-13.474-3.896-2.86c0,0.002,0.003,0.025,0.003,0.025l-14.855-10.912v10.153c-0.113-0.008-0.227-0.018-0.343-0.018-12.387,0-22.431,10.044-22.431,22.432,0.001,12.39,10.045,22.433,22.432,22.433,12.176,0,22.066-9.708,22.401-21.805h-6.713z" fill="#999"/>
</svg>
